<svg width="10" height="12" viewBox="0 0 10 12" fill="none" xmlns="http://www.w3.org/2000/svg">
<path fill-rule="evenodd" clip-rule="evenodd" d="M4.99989 11.7707C5.18223 11.7707 5.3571 11.6972 5.48603 11.5663C5.61496 11.4354 5.68739 11.2579 5.68739 11.0729V2.98771L8.63814 5.98423C8.70206 6.04911 8.77795 6.10058 8.86147 6.13569C8.94498 6.1708 9.0345 6.18888 9.12489 6.18888C9.21529 6.18888 9.3048 6.1708 9.38832 6.13569C9.47184 6.10058 9.54772 6.04911 9.61164 5.98423C9.67556 5.91935 9.72627 5.84232 9.76086 5.75755C9.79546 5.67277 9.81326 5.58191 9.81326 5.49016C9.81326 5.3984 9.79546 5.30754 9.76086 5.22277C9.72627 5.138 9.67556 5.06097 9.61164 4.99609L5.48664 0.809058C5.42278 0.744071 5.34691 0.692511 5.26339 0.65733C5.17986 0.62215 5.09032 0.604042 4.99989 0.604042C4.90946 0.604042 4.81992 0.62215 4.7364 0.65733C4.65287 0.692511 4.57701 0.744071 4.51314 0.809058L0.388142 4.99609C0.259048 5.12712 0.186523 5.30485 0.186523 5.49016C0.186523 5.67547 0.259048 5.85319 0.388142 5.98423C0.517236 6.11526 0.692326 6.18888 0.874892 6.18888C1.05746 6.18888 1.23255 6.11526 1.36164 5.98423L4.31239 2.98771V11.0729C4.31239 11.2579 4.38483 11.4354 4.51376 11.5663C4.64269 11.6972 4.81756 11.7707 4.99989 11.7707Z" fill="#50CD89"/>
</svg>
