<svg width="20" height="21" viewBox="0 0 20 21" fill="none" xmlns="http://www.w3.org/2000/svg">
<path d="M4.15604 9.67897C4.15606 9.56713 4.17813 9.4564 4.22099 9.35313C4.26384 9.24986 4.32663 9.15609 4.40575 9.0772C4.48488 8.99831 4.57877 8.93586 4.68205 8.89343C4.78534 8.851 4.89597 8.82942 5.00759 8.82994L6.41937 8.83456C6.64447 8.83456 6.86035 8.92416 7.01952 9.08363C7.1787 9.2431 7.26812 9.45939 7.26812 9.68491V15.0336C7.42712 14.9864 7.63062 14.9361 7.85454 14.8832C8.00968 14.8467 8.14795 14.7587 8.24691 14.6335C8.34588 14.5084 8.39975 14.3534 8.39978 14.1937V7.55945C8.39978 7.33391 8.4892 7.11761 8.64837 6.95811C8.80753 6.79861 9.02341 6.70899 9.24853 6.70894H10.6646C10.8897 6.70899 11.1056 6.79861 11.2648 6.95811C11.4239 7.11761 11.5133 7.33391 11.5133 7.55945V13.7171C11.5133 13.7171 11.8676 13.5735 12.2125 13.4275C12.3406 13.3732 12.45 13.2823 12.5269 13.1662C12.6038 13.05 12.6449 12.9137 12.645 12.7743V5.4335C12.645 5.20801 12.7344 4.99174 12.8935 4.83228C13.0527 4.67281 13.2685 4.5832 13.4936 4.58316H14.9082C15.1331 4.58337 15.3488 4.67306 15.5078 4.83251C15.6668 4.99196 15.7561 5.20812 15.7561 5.4335V11.4784C16.9825 10.5879 18.2254 9.51686 19.2117 8.22904C19.3548 8.0421 19.4495 7.82259 19.4873 7.59007C19.5252 7.35756 19.505 7.11927 19.4286 6.89648C18.972 5.58045 18.2462 4.3744 17.2977 3.35552C16.3492 2.33663 15.1989 1.52734 13.9203 0.979435C12.6417 0.43153 11.263 0.157075 9.87245 0.173635C8.48191 0.190195 7.11013 0.497403 5.84489 1.0756C4.57965 1.6538 3.44882 2.49026 2.52476 3.53144C1.6007 4.57263 0.903763 5.79562 0.47854 7.12215C0.0533171 8.44868 -0.090823 9.84954 0.0553425 11.2351C0.201508 12.6206 0.634761 13.9603 1.32738 15.1685C1.44804 15.3769 1.62558 15.5465 1.83911 15.6573C2.05265 15.7682 2.29332 15.8156 2.53286 15.7942C2.80045 15.7706 3.13362 15.7372 3.52974 15.6907C3.70214 15.671 3.8613 15.5885 3.97691 15.4589C4.09253 15.3293 4.15652 15.1616 4.1567 14.9877V9.67897" fill="#009EF7"/>
<path d="M4.12585 18.2569C5.61692 19.3437 7.37901 19.996 9.21715 20.1417C11.0553 20.2874 12.8978 19.9208 14.5409 19.0825C16.184 18.2442 17.5636 16.9668 18.5271 15.3917C19.4905 13.8165 20.0003 12.0051 20 10.1577C20 9.9266 19.9893 9.69912 19.9739 9.47229C16.3221 14.9291 9.5792 17.4802 4.12585 18.2569Z" fill="#009EF7"/>
</svg>
