<svg width="18" height="18" viewBox="0 0 18 18" fill="none" xmlns="http://www.w3.org/2000/svg">
<g clip-path="url(#clip0_39_928)">
<path d="M6.75 0.312659C6.85982 0.446098 6.92709 0.609402 6.94313 0.781471C6.95918 0.953541 6.92325 1.12647 6.84 1.27791C6.18959 2.47207 5.84993 3.81061 5.85225 5.17041C5.85225 9.69403 9.54 13.357 14.085 13.357C14.6779 13.357 15.255 13.2952 15.8096 13.177C15.9796 13.1402 16.1567 13.1543 16.3188 13.2175C16.4809 13.2807 16.6207 13.3903 16.7209 13.5325C16.8266 13.6804 16.8805 13.8591 16.8742 14.0408C16.8679 14.2225 16.8017 14.397 16.686 14.5372C15.8036 15.621 14.6905 16.4943 13.4278 17.0934C12.1651 17.6924 10.7846 18.0021 9.387 17.9999C4.20075 17.9999 0 13.8217 0 8.67366C0 4.79916 2.37825 1.47591 5.7645 0.0674086C5.93318 -0.0038806 6.12044 -0.0185124 6.29814 0.0257112C6.47585 0.0699347 6.63441 0.170626 6.75 0.312659Z" fill="#565772"/>
<path d="M12.1432 3.54131C12.1593 3.49259 12.1904 3.4502 12.232 3.42015C12.2736 3.3901 12.3236 3.37393 12.3749 3.37393C12.4262 3.37393 12.4762 3.3901 12.5178 3.42015C12.5595 3.4502 12.5905 3.49259 12.6067 3.54131L13.042 4.84856C13.2367 5.43131 13.6934 5.88806 14.2762 6.08269L15.5834 6.51806C15.6321 6.53419 15.6745 6.56527 15.7046 6.60687C15.7346 6.64848 15.7508 6.69849 15.7508 6.74981C15.7508 6.80113 15.7346 6.85115 15.7046 6.89275C15.6745 6.93435 15.6321 6.96543 15.5834 6.98156L14.2762 7.41694C13.9887 7.51269 13.7276 7.67407 13.5134 7.88828C13.2992 8.10249 13.1378 8.36365 13.042 8.65106L12.6067 9.95831C12.5905 10.007 12.5595 10.0494 12.5178 10.0795C12.4762 10.1095 12.4262 10.1257 12.3749 10.1257C12.3236 10.1257 12.2736 10.1095 12.232 10.0795C12.1904 10.0494 12.1593 10.007 12.1432 9.95831L11.7078 8.65106C11.612 8.36365 11.4506 8.10249 11.2364 7.88828C11.0222 7.67407 10.7611 7.51269 10.4737 7.41694L9.16641 6.98156C9.11769 6.96543 9.07529 6.93435 9.04525 6.89275C9.0152 6.85115 8.99902 6.80113 8.99902 6.74981C8.99902 6.69849 9.0152 6.64848 9.04525 6.60687C9.07529 6.56527 9.11769 6.53419 9.16641 6.51806L10.4737 6.08269C10.7611 5.98693 11.0222 5.82555 11.2364 5.61134C11.4506 5.39713 11.612 5.13597 11.7078 4.84856L12.1432 3.54131ZM15.5958 0.111186C15.6069 0.0791529 15.6277 0.0513762 15.6553 0.0317176C15.6829 0.012059 15.716 0.00149536 15.7499 0.00149536C15.7838 0.00149536 15.8169 0.012059 15.8445 0.0317176C15.8721 0.0513762 15.8929 0.0791529 15.904 0.111186L16.1943 0.981936C16.3237 1.37119 16.6285 1.67606 17.0178 1.80544L17.8885 2.09569C17.9206 2.10679 17.9483 2.1276 17.968 2.15522C17.9877 2.18285 17.9982 2.21591 17.9982 2.24981C17.9982 2.28371 17.9877 2.31678 17.968 2.3444C17.9483 2.37202 17.9206 2.39283 17.8885 2.40394L17.0178 2.69419C16.826 2.758 16.6517 2.86565 16.5087 3.0086C16.3658 3.15155 16.2581 3.32586 16.1943 3.51769L15.904 4.38844C15.8929 4.42047 15.8721 4.44825 15.8445 4.4679C15.8169 4.48756 15.7838 4.49813 15.7499 4.49813C15.716 4.49813 15.6829 4.48756 15.6553 4.4679C15.6277 4.44825 15.6069 4.42047 15.5958 4.38844L15.3055 3.51769C15.2417 3.32586 15.1341 3.15155 14.9911 3.0086C14.8482 2.86565 14.6739 2.758 14.482 2.69419L13.6113 2.40394C13.5793 2.39283 13.5515 2.37202 13.5318 2.3444C13.5122 2.31678 13.5016 2.28371 13.5016 2.24981C13.5016 2.21591 13.5122 2.18285 13.5318 2.15522C13.5515 2.1276 13.5793 2.10679 13.6113 2.09569L14.482 1.80544C14.8713 1.67606 15.1762 1.37119 15.3055 0.981936L15.5958 0.112311V0.111186Z" fill="#565772"/>
</g>
<defs>
<clipPath id="clip0_39_928">
<rect width="18" height="18" fill="white"/>
</clipPath>
</defs>
</svg>
