<svg width="18" height="18" viewBox="0 0 18 18" fill="none" xmlns="http://www.w3.org/2000/svg">
<path d="M13.5 8.83231C13.5 9.971 13.0259 11.0631 12.182 11.8682C11.3381 12.6734 10.1935 13.1258 9 13.1258C7.80653 13.1258 6.66193 12.6734 5.81802 11.8682C4.97411 11.0631 4.5 9.971 4.5 8.83231C4.5 7.69361 4.97411 6.60155 5.81802 5.79637C6.66193 4.99119 7.80653 4.53885 9 4.53885C10.1935 4.53885 11.3381 4.99119 12.182 5.79637C13.0259 6.60155 13.5 7.69361 13.5 8.83231ZM9 0.245392C9.14918 0.245392 9.29226 0.301935 9.39775 0.402582C9.50324 0.50323 9.5625 0.639737 9.5625 0.782074V2.9288C9.5625 3.07114 9.50324 3.20765 9.39775 3.30829C9.29226 3.40894 9.14918 3.46548 9 3.46548C8.85082 3.46548 8.70774 3.40894 8.60225 3.30829C8.49676 3.20765 8.4375 3.07114 8.4375 2.9288V0.782074C8.4375 0.639737 8.49676 0.50323 8.60225 0.402582C8.70774 0.301935 8.85082 0.245392 9 0.245392V0.245392ZM9 14.1991C9.14918 14.1991 9.29226 14.2557 9.39775 14.3563C9.50324 14.457 9.5625 14.5935 9.5625 14.7358V16.8825C9.5625 17.0249 9.50324 17.1614 9.39775 17.262C9.29226 17.3627 9.14918 17.4192 9 17.4192C8.85082 17.4192 8.70774 17.3627 8.60225 17.262C8.49676 17.1614 8.4375 17.0249 8.4375 16.8825V14.7358C8.4375 14.5935 8.49676 14.457 8.60225 14.3563C8.70774 14.2557 8.85082 14.1991 9 14.1991ZM18 8.83231C18 8.97464 17.9407 9.11115 17.8352 9.2118C17.7298 9.31245 17.5867 9.36899 17.4375 9.36899H15.1875C15.0383 9.36899 14.8952 9.31245 14.7898 9.2118C14.6843 9.11115 14.625 8.97464 14.625 8.83231C14.625 8.68997 14.6843 8.55346 14.7898 8.45281C14.8952 8.35217 15.0383 8.29562 15.1875 8.29562H17.4375C17.5867 8.29562 17.7298 8.35217 17.8352 8.45281C17.9407 8.55346 18 8.68997 18 8.83231ZM3.375 8.83231C3.375 8.97464 3.31574 9.11115 3.21025 9.2118C3.10476 9.31245 2.96168 9.36899 2.8125 9.36899H0.5625C0.413316 9.36899 0.270242 9.31245 0.164752 9.2118C0.0592632 9.11115 0 8.97464 0 8.83231C0 8.68997 0.0592632 8.55346 0.164752 8.45281C0.270242 8.35217 0.413316 8.29562 0.5625 8.29562H2.8125C2.96168 8.29562 3.10476 8.35217 3.21025 8.45281C3.31574 8.55346 3.375 8.68997 3.375 8.83231ZM15.3641 2.76028C15.4696 2.86093 15.5288 2.99741 15.5288 3.13972C15.5288 3.28203 15.4696 3.41851 15.3641 3.51915L13.7734 5.03796C13.7211 5.08779 13.659 5.1273 13.5907 5.15424C13.5224 5.18118 13.4492 5.19502 13.3753 5.19497C13.226 5.19487 13.0829 5.1382 12.9774 5.03743C12.9252 4.98753 12.8838 4.9283 12.8556 4.86314C12.8273 4.79797 12.8128 4.72813 12.8129 4.65761C12.813 4.5152 12.8724 4.37865 12.978 4.27802L14.5687 2.76028C14.6742 2.65967 14.8173 2.60315 14.9664 2.60315C15.1156 2.60315 15.2586 2.65967 15.3641 2.76028ZM5.022 12.6277C5.12745 12.7284 5.18669 12.8648 5.18669 13.0072C5.18669 13.1495 5.12745 13.2859 5.022 13.3866L3.43125 14.9043C3.32516 15.0021 3.18307 15.0562 3.03559 15.055C2.8881 15.0537 2.74702 14.9973 2.64273 14.8978C2.53843 14.7983 2.47928 14.6637 2.478 14.523C2.47671 14.3822 2.53341 14.2467 2.63587 14.1455L4.22662 12.6277C4.33211 12.5271 4.47516 12.4706 4.62431 12.4706C4.77347 12.4706 4.91652 12.5271 5.022 12.6277ZM15.3641 14.9043C15.2586 15.0049 15.1156 15.0615 14.9664 15.0615C14.8173 15.0615 14.6742 15.0049 14.5687 14.9043L12.978 13.3866C12.8755 13.2854 12.8188 13.1498 12.8201 13.0091C12.8214 12.8684 12.8806 12.7338 12.9849 12.6343C13.0891 12.5348 13.2302 12.4783 13.3777 12.4771C13.5252 12.4759 13.6673 12.53 13.7734 12.6277L15.3641 14.1455C15.4696 14.2461 15.5288 14.3826 15.5288 14.5249C15.5288 14.6672 15.4696 14.8037 15.3641 14.9043ZM5.022 5.03796C4.91652 5.13858 4.77347 5.1951 4.62431 5.1951C4.47516 5.1951 4.33211 5.13858 4.22662 5.03796L2.63587 3.51915C2.58215 3.46965 2.5393 3.41043 2.50982 3.34495C2.48034 3.27947 2.46482 3.20905 2.46417 3.13779C2.46352 3.06653 2.47775 2.99586 2.50604 2.9299C2.53432 2.86394 2.57609 2.80402 2.6289 2.75363C2.68172 2.70324 2.74452 2.66339 2.81365 2.63641C2.88278 2.60942 2.95685 2.59584 3.03154 2.59646C3.10623 2.59708 3.18004 2.61189 3.24867 2.64001C3.31729 2.66814 3.37936 2.70903 3.43125 2.76028L5.022 4.27802C5.07438 4.32787 5.11594 4.3871 5.1443 4.4523C5.17266 4.5175 5.18726 4.5874 5.18726 4.65799C5.18726 4.72858 5.17266 4.79848 5.1443 4.86369C5.11594 4.92889 5.07438 4.98811 5.022 5.03796Z" fill="#A1A5B7"/>
</svg>
