<svg width="26" height="22" viewBox="0 0 26 22" fill="none" xmlns="http://www.w3.org/2000/svg">
<path d="M25.509 0.302436C25.0655 -0.0473654 24.3689 -0.0974155 23.6487 0.171535H23.6475C22.89 0.454236 2.20499 8.70646 1.36292 9.04361C1.20976 9.09311 -0.127842 9.55731 0.00993972 10.5913C0.132938 11.5236 1.20799 11.9097 1.33927 11.9542L6.59804 13.629C6.94693 14.7092 8.23309 18.6945 8.51752 19.5459C8.69492 20.0766 8.98409 20.774 9.49086 20.9176C9.93555 21.0771 10.3779 20.9313 10.6641 20.7223L13.8792 17.9487L19.0694 21.7134L19.1929 21.7822C19.5454 21.9274 19.883 22 20.2053 22C20.4543 22 20.6932 21.9566 20.9214 21.8696C21.699 21.5726 22.0101 20.8835 22.0426 20.8054L25.9194 2.06299C26.1559 1.06199 25.8272 0.552686 25.509 0.302436ZM11.2359 14.2989L9.46189 18.6989L7.68787 13.1989L21.2886 3.84885L11.2359 14.2989Z" fill="#25A4E2"/>
</svg>
