<svg width="24" height="24" viewBox="0 0 24 24" fill="none" xmlns="http://www.w3.org/2000/svg">
<path d="M0 11.52C0 6.0893 -1.59685e-06 3.37116 1.6867 1.6867C3.37339 0.0022325 6.0893 0 11.52 0H12.48C17.9107 0 20.6288 0 22.3133 1.6867C23.9978 3.3734 24 6.0893 24 11.52V12.48C24 17.9107 24 20.6288 22.3133 22.3133C20.6266 23.9978 17.9107 24 12.48 24H11.52C6.0893 24 3.37116 24 1.6867 22.3133C0.00223091 20.6266 0 17.9107 0 12.48V11.52Z" fill="url(#paint0_linear_208_769)"/>
<path fill-rule="evenodd" clip-rule="evenodd" d="M4.94409 11.7209C8.78186 10.0487 11.3411 8.9462 12.6219 8.41337C16.2788 6.89188 17.0379 6.62732 17.5335 6.6195C17.7154 6.61519 17.8941 6.66873 18.0436 6.77243C18.1483 6.86368 18.2151 6.99064 18.2312 7.12853C18.2578 7.30019 18.2653 7.47428 18.2535 7.6476C18.0548 9.72946 17.1975 14.7817 16.761 17.1125C16.5768 18.0993 16.2141 18.4309 15.8613 18.4632C15.0967 18.5336 14.5162 17.9576 13.7761 17.472C12.6174 16.7129 11.9621 16.2441 10.8381 15.4984C9.53759 14.6422 10.3804 14.1711 11.1216 13.402C11.3158 13.2 14.6836 10.1358 14.7495 9.85783C14.7579 9.81702 14.7568 9.7748 14.7461 9.73451C14.7355 9.69421 14.7156 9.65695 14.6881 9.62564C14.6481 9.59983 14.6025 9.58394 14.5552 9.57928C14.5078 9.57462 14.46 9.58133 14.4157 9.59885C14.2996 9.62564 12.4485 10.8491 8.86224 13.2692C8.3361 13.6309 7.86018 13.8069 7.43451 13.7972C6.96344 13.7871 6.05926 13.5315 5.38726 13.3127C4.56344 13.0448 3.90819 12.903 3.96512 12.4476C3.99414 12.2095 4.32046 11.9672 4.94409 11.7209Z" fill="white"/>
<defs>
<linearGradient id="paint0_linear_208_769" x1="0" y1="12" x2="24" y2="12" gradientUnits="userSpaceOnUse">
<stop stop-color="#2AABEE"/>
<stop offset="1" stop-color="#229ED9"/>
</linearGradient>
</defs>
</svg>
