<svg width="24" height="24" viewBox="0 0 24 24" fill="none" xmlns="http://www.w3.org/2000/svg">
<path d="M0 11.52C0 6.0893 -1.59685e-06 3.37116 1.6867 1.6867C3.37339 0.00223091 6.0893 0 11.52 0H12.48C17.9107 0 20.6288 -1.59685e-06 22.3133 1.6867C23.9978 3.37339 24 6.0893 24 11.52V12.48C24 17.9107 24 20.6288 22.3133 22.3133C20.6266 23.9978 17.9107 24 12.48 24H11.52C6.0893 24 3.37116 24 1.6867 22.3133C0.00223091 20.6266 0 17.9107 0 12.48V11.52Z" fill="#1DA1F2"/>
<path d="M9.71172 17.7488C14.7763 17.7488 17.5469 13.5527 17.5469 9.91251C17.5469 9.79419 17.5469 9.67475 17.5391 9.55754C18.0779 9.16749 18.5432 8.68483 18.9132 8.13205C18.4105 8.35437 17.8773 8.50036 17.3314 8.56516C17.906 8.22056 18.336 7.67913 18.5415 7.04145C18.0013 7.3629 17.4101 7.58943 16.7934 7.71121C16.3778 7.27175 15.8291 6.98121 15.2321 6.88441C14.635 6.7876 14.0227 6.8899 13.4895 7.17553C12.9563 7.46116 12.5319 7.91426 12.2817 8.46496C12.0315 9.01566 11.9694 9.63337 12.105 10.2228C11.0099 10.1683 9.93859 9.88382 8.96064 9.38802C7.98269 8.89221 7.12003 8.19615 6.42875 7.34507C6.07667 7.9515 5.96888 8.6693 6.12731 9.3524C6.28575 10.0355 6.6985 10.6326 7.28158 11.0221C6.84325 11.0088 6.41451 10.8905 6.03135 10.6772V10.7162C6.03137 11.3521 6.25136 11.9684 6.65402 12.4606C7.05667 12.9528 7.61718 13.2905 8.24047 13.4165C7.83496 13.5268 7.40959 13.5429 6.99693 13.4634C7.17282 14.0096 7.51467 14.4873 7.97487 14.8301C8.43506 15.1728 8.99069 15.3635 9.56437 15.3756C8.58826 16.1434 7.38152 16.5591 6.13963 16.5555C5.92064 16.5553 5.70184 16.5423 5.48438 16.5164C6.74574 17.325 8.21344 17.7529 9.71172 17.7488Z" fill="white"/>
</svg>
