<svg width="16" height="16" viewBox="0 0 16 16" fill="none" xmlns="http://www.w3.org/2000/svg">
<path d="M12.136 0.939225C12.3571 0.885458 12.5878 0.881369 12.8107 0.927268C13.0337 0.973167 13.2429 1.06785 13.4226 1.20412C13.6023 1.3404 13.7476 1.51468 13.8477 1.71375C13.9477 1.91281 13.9998 2.13142 14 2.35299V3.53923H14.5C14.8978 3.53923 15.2794 3.69289 15.5607 3.96641C15.842 4.23993 16 4.6109 16 4.99772V13.7487C16 14.1355 15.842 14.5065 15.5607 14.78C15.2794 15.0535 14.8978 15.2072 14.5 15.2072H1.5C1.10218 15.2072 0.720644 15.0535 0.43934 14.78C0.158035 14.5065 9.80916e-08 14.1355 9.80916e-08 13.7487V4.99772C-0.000139461 4.62226 0.148642 4.26121 0.415377 3.98972C0.682113 3.71823 1.04625 3.55722 1.432 3.5402L12.136 0.939225ZM5.562 3.53923H13V2.35299C12.9998 2.27922 12.9824 2.20646 12.949 2.14022C12.9156 2.07398 12.8672 2.01599 12.8074 1.97064C12.7475 1.92529 12.6779 1.89378 12.6036 1.87849C12.5294 1.8632 12.4526 1.86453 12.379 1.88238L5.562 3.53923ZM1.5 4.51155C1.36739 4.51155 1.24021 4.56278 1.14645 4.65395C1.05268 4.74512 1 4.86878 1 4.99772V13.7487C1 13.8776 1.05268 14.0013 1.14645 14.0924C1.24021 14.1836 1.36739 14.2348 1.5 14.2348H14.5C14.6326 14.2348 14.7598 14.1836 14.8536 14.0924C14.9473 14.0013 15 13.8776 15 13.7487V4.99772C15 4.86878 14.9473 4.74512 14.8536 4.65395C14.7598 4.56278 14.6326 4.51155 14.5 4.51155H1.5Z" fill="white"/>
</svg>
