<svg width="22" height="18" viewBox="0 0 22 18" fill="none" xmlns="http://www.w3.org/2000/svg">
<path fill-rule="evenodd" clip-rule="evenodd" d="M1.49231 7.74944C7.32191 5.20937 11.2095 3.53464 13.1549 2.72526C18.7098 0.414104 19.8629 0.0122372 20.6157 0.000367695C20.8921 -0.0061914 21.1634 0.0751483 21.3906 0.23267C21.5496 0.371273 21.6511 0.564124 21.6755 0.773579C21.716 1.03433 21.7274 1.29878 21.7094 1.56205C21.4076 4.72442 20.1053 12.3989 19.4423 15.9394C19.1626 17.4383 18.6115 17.9419 18.0757 17.9911C16.9141 18.0979 16.0324 17.223 14.9082 16.4854C13.1481 15.3323 12.1528 14.6202 10.4453 13.4875C8.46987 12.1869 9.75007 11.4714 10.876 10.3031C11.171 9.99616 16.2868 5.34163 16.3868 4.91941C16.3996 4.85742 16.3979 4.79329 16.3817 4.73208C16.3655 4.67088 16.3353 4.61427 16.2935 4.56672C16.2328 4.52751 16.1636 4.50337 16.0916 4.49629C16.0196 4.48921 15.947 4.49941 15.8798 4.52603C15.7035 4.56672 12.8915 6.42514 7.44401 10.1013C6.64479 10.6507 5.92188 10.918 5.27528 10.9033C4.55972 10.8881 3.18626 10.4998 2.16548 10.1674C0.914099 9.76046 -0.081239 9.54512 0.00523857 8.8533C0.0493252 8.49156 0.54501 8.12361 1.49231 7.74944Z" fill="#CFD2E3"/>
</svg>
