<svg width="23" height="18" viewBox="0 0 23 18" fill="none" xmlns="http://www.w3.org/2000/svg">
<path d="M6.95414 18C15.2855 18 19.8433 11.0706 19.8433 5.05924C19.8433 4.86384 19.8433 4.6666 19.8304 4.47304C20.7168 3.82892 21.4822 3.03186 22.0909 2.11901C21.2639 2.48615 20.3868 2.72723 19.4888 2.83425C20.434 2.26517 21.1413 1.37108 21.4794 0.318006C20.5908 0.848845 19.6182 1.22294 18.6037 1.42405C17.92 0.698325 17.0175 0.21854 16.0353 0.0586755C15.0531 -0.101189 14.0458 0.0677431 13.1687 0.53943C12.2916 1.01112 11.5934 1.75936 11.1818 2.66878C10.7703 3.57819 10.6681 4.59827 10.8912 5.57171C9.08974 5.48158 7.32734 5.01186 5.71858 4.1931C4.10982 3.37434 2.69072 2.22486 1.55353 0.819407C0.974346 1.82086 0.797023 3.00622 1.05765 4.13427C1.31829 5.26233 1.99728 6.24831 2.95647 6.89159C2.23539 6.86957 1.53011 6.67424 0.8998 6.32198V6.38649C0.89983 7.4366 1.26172 8.45437 1.9241 9.26714C2.58647 10.0799 3.50854 10.6376 4.53387 10.8457C3.8668 11.0279 3.16705 11.0543 2.48821 10.9231C2.77756 11.8251 3.33991 12.614 4.09695 13.18C4.85399 13.746 5.76802 14.0609 6.71174 14.0809C5.10601 15.3488 3.12087 16.0354 1.07792 16.0294C0.717663 16.029 0.357739 16.0075 0 15.9648C2.075 17.3001 4.48942 18.0067 6.95414 18Z" fill="#CFD2E3"/>
</svg>
