<?xml version="1.0" encoding="UTF-8"?>
<svg xmlns="http://www.w3.org/2000/svg" xmlns:xlink="http://www.w3.org/1999/xlink" width="29px" height="29px" viewBox="0 0 29 29" version="1.1">
<g id="surface1">
<path style="fill-rule:nonzero;fill:rgb(88.627451%,46.27451%,10.588235%);fill-opacity:1;stroke-width:1;stroke-linecap:round;stroke-linejoin:round;stroke:rgb(88.627451%,46.27451%,10.588235%);stroke-opacity:1;stroke-miterlimit:4;" d="M 274.097279 35.490598 L 174.620609 109.390005 L 192.988173 65.788497 Z M 274.097279 35.490598 " transform="matrix(0.0910232,0,0,0.0910232,0,0)"/>
<path style="fill-rule:nonzero;fill:rgb(89.411765%,46.27451%,10.588235%);fill-opacity:1;stroke-width:1;stroke-linecap:round;stroke-linejoin:round;stroke:rgb(89.411765%,46.27451%,10.588235%);stroke-opacity:1;stroke-miterlimit:4;" d="M 44.416891 35.490598 L 143.121094 110.119558 L 125.611827 65.788497 Z M 238.306277 206.806762 L 211.784887 247.40423 L 268.518346 262.982328 L 284.783082 207.707974 Z M 33.902748 207.707974 L 50.081654 262.982328 L 106.815113 247.40423 L 80.293723 206.806762 Z M 33.902748 207.707974 " transform="matrix(0.0910232,0,0,0.0910232,0,0)"/>
<path style="fill-rule:nonzero;fill:rgb(89.411765%,46.27451%,10.588235%);fill-opacity:1;stroke-width:1;stroke-linecap:round;stroke-linejoin:round;stroke:rgb(89.411765%,46.27451%,10.588235%);stroke-opacity:1;stroke-miterlimit:4;" d="M 103.596498 138.185884 L 87.803825 162.089467 L 144.108136 164.621444 L 142.091137 104.111476 Z M 214.917672 138.185884 L 175.908055 103.381923 L 174.620609 164.621444 L 230.796175 162.089467 Z M 106.815113 247.40423 L 140.589116 230.882004 L 111.407004 208.094208 Z M 177.882139 230.882004 L 211.784887 247.40423 L 207.107166 208.094208 Z M 177.882139 230.882004 " transform="matrix(0.0910232,0,0,0.0910232,0,0)"/>
<path style="fill-rule:nonzero;fill:rgb(84.313725%,75.686275%,70.196078%);fill-opacity:1;stroke-width:1;stroke-linecap:round;stroke-linejoin:round;stroke:rgb(84.313725%,75.686275%,70.196078%);stroke-opacity:1;stroke-miterlimit:4;" d="M 211.784887 247.40423 L 177.882139 230.882004 L 180.585776 252.983163 L 180.285372 262.29569 Z M 106.815113 247.40423 L 138.314628 262.29569 L 138.100054 252.983163 L 140.589116 230.882004 Z M 106.815113 247.40423 " transform="matrix(0.0910232,0,0,0.0910232,0,0)"/>
<path style="fill-rule:nonzero;fill:rgb(13.72549%,20.392157%,27.843137%);fill-opacity:1;stroke-width:1;stroke-linecap:round;stroke-linejoin:round;stroke:rgb(13.72549%,20.392157%,27.843137%);stroke-opacity:1;stroke-miterlimit:4;" d="M 138.786692 193.503152 L 110.591622 185.220582 L 130.504122 176.079714 Z M 179.684564 193.503152 L 188.010048 176.079714 L 208.008378 185.220582 Z M 179.684564 193.503152 " transform="matrix(0.0910232,0,0,0.0910232,0,0)"/>
<path style="fill-rule:nonzero;fill:rgb(80.392157%,38.039216%,8.627451%);fill-opacity:1;stroke-width:1;stroke-linecap:round;stroke-linejoin:round;stroke:rgb(80.392157%,38.039216%,8.627451%);stroke-opacity:1;stroke-miterlimit:4;" d="M 106.815113 247.40423 L 111.578664 206.806762 L 80.293723 207.707974 Z M 207.021336 206.806762 L 211.784887 247.40423 L 238.306277 207.707974 Z M 230.796175 162.089467 L 174.620609 164.621444 L 179.813308 193.503152 L 188.095878 176.079714 L 208.094208 185.220582 Z M 110.591622 185.220582 L 130.589952 176.079714 L 138.786692 193.503152 L 144.108136 164.621444 L 87.803825 162.089467 Z M 110.591622 185.220582 " transform="matrix(0.0910232,0,0,0.0910232,0,0)"/>
<path style="fill-rule:nonzero;fill:rgb(89.411765%,45.882353%,12.156863%);fill-opacity:1;stroke-width:1;stroke-linecap:round;stroke-linejoin:round;stroke:rgb(89.411765%,45.882353%,12.156863%);stroke-opacity:1;stroke-miterlimit:4;" d="M 87.803825 162.089467 L 111.407004 208.094208 L 110.591622 185.220582 Z M 208.094208 185.220582 L 207.107166 208.094208 L 230.796175 162.089467 Z M 144.108136 164.621444 L 138.786692 193.503152 L 145.395582 227.620474 L 146.897602 182.688605 Z M 174.620609 164.621444 L 171.916972 182.602775 L 173.118588 227.620474 L 179.813308 193.503152 Z M 174.620609 164.621444 " transform="matrix(0.0910232,0,0,0.0910232,0,0)"/>
<path style="fill-rule:nonzero;fill:rgb(96.470588%,52.156863%,10.588235%);fill-opacity:1;stroke-width:1;stroke-linecap:round;stroke-linejoin:round;stroke:rgb(96.470588%,52.156863%,10.588235%);stroke-opacity:1;stroke-miterlimit:4;" d="M 179.813308 193.503152 L 173.118588 227.620474 L 177.882139 230.882004 L 207.107166 208.094208 L 208.094208 185.220582 Z M 110.591622 185.220582 L 111.407004 208.094208 L 140.589116 230.882004 L 145.395582 227.620474 L 138.786692 193.503152 Z M 110.591622 185.220582 " transform="matrix(0.0910232,0,0,0.0910232,0,0)"/>
<path style="fill-rule:nonzero;fill:rgb(75.294118%,67.843137%,61.960784%);fill-opacity:1;stroke-width:1;stroke-linecap:round;stroke-linejoin:round;stroke:rgb(75.294118%,67.843137%,61.960784%);stroke-opacity:1;stroke-miterlimit:4;" d="M 180.285372 262.29569 L 180.585776 252.983163 L 178.096713 250.794504 L 140.417457 250.794504 L 138.100054 252.983163 L 138.314628 262.29569 L 106.815113 247.40423 L 117.80132 256.416352 L 140.117053 271.908621 L 178.397117 271.908621 L 200.79868 256.416352 L 211.784887 247.40423 Z M 180.285372 262.29569 " transform="matrix(0.0910232,0,0,0.0910232,0,0)"/>
<path style="fill-rule:nonzero;fill:rgb(8.627451%,8.627451%,8.627451%);fill-opacity:1;stroke-width:1;stroke-linecap:round;stroke-linejoin:round;stroke:rgb(8.627451%,8.627451%,8.627451%);stroke-opacity:1;stroke-miterlimit:4;" d="M 177.882139 230.882004 L 173.118588 227.620474 L 145.395582 227.620474 L 140.589116 230.882004 L 138.100054 252.983163 L 140.417457 250.794504 L 178.096713 250.794504 L 180.585776 252.983163 Z M 177.882139 230.882004 " transform="matrix(0.0910232,0,0,0.0910232,0,0)"/>
<path style="fill-rule:nonzero;fill:rgb(46.27451%,23.921569%,8.627451%);fill-opacity:1;stroke-width:1;stroke-linecap:round;stroke-linejoin:round;stroke:rgb(46.27451%,23.921569%,8.627451%);stroke-opacity:1;stroke-miterlimit:4;" d="M 278.302936 114.196471 L 286.800081 73.384429 L 274.097279 35.490598 L 177.882139 106.900943 L 214.917672 138.185884 L 267.187985 153.506492 L 278.817915 139.988308 L 273.796875 136.383459 L 281.779041 129.087931 L 275.5993 124.281466 L 283.581466 118.187554 Z M 31.799919 73.384429 L 40.297064 114.196471 L 34.88979 118.187554 L 42.914871 124.281466 L 36.820959 129.087931 L 44.803125 136.383459 L 39.782085 139.988308 L 51.28327 153.506492 L 103.596498 138.185884 L 140.589116 106.900943 L 44.416891 35.490598 Z M 31.799919 73.384429 " transform="matrix(0.0910232,0,0,0.0910232,0,0)"/>
<path style="fill-rule:nonzero;fill:rgb(96.470588%,52.156863%,10.588235%);fill-opacity:1;stroke-width:1;stroke-linecap:round;stroke-linejoin:round;stroke:rgb(96.470588%,52.156863%,10.588235%);stroke-opacity:1;stroke-miterlimit:4;" d="M 267.187985 153.506492 L 214.917672 138.185884 L 230.796175 162.089467 L 207.107166 208.094208 L 238.306277 207.707974 L 284.783082 207.707974 Z M 103.596498 138.185884 L 51.28327 153.506492 L 33.902748 207.707974 L 80.293723 207.707974 L 111.407004 208.094208 L 87.803825 162.089467 Z M 174.620609 164.621444 L 177.882139 106.900943 L 193.116918 65.788497 L 125.611827 65.788497 L 140.589116 106.900943 L 144.108136 164.621444 L 145.309752 182.817349 L 145.395582 227.620474 L 173.118588 227.620474 L 173.290248 182.817349 Z M 174.620609 164.621444 " transform="matrix(0.0910232,0,0,0.0910232,0,0)"/>
</g>
</svg>
